<svg width="72" height="34" viewBox="0 0 72 34" fill="none" xmlns="http://www.w3.org/2000/svg">
<path d="M1.02843 14.293C1.58103 8.88618 1.3644 2.04652 8.03342 1.09219C11.2024 0.638711 15.2235 3.93278 16.2015 6.70194C17.0129 8.99893 18.8406 11.5568 17.1285 13.9347C15.7837 15.8024 13.4274 16.6259 11.275 15.5443C5.16289 12.4728 11.2219 5.90035 15.2543 5.04633C20.7584 3.88064 32.0438 14.0108 29.3303 19.8936C27.0038 24.9376 22.2643 20.7492 23.5795 16.5012C25.4296 10.5254 28.7956 8.92219 35.1303 11.7601C40.0765 13.9759 41.8216 20.8724 40.5464 25.4378C40.2816 26.386 40.2731 32.2342 39.5493 31.9577C32.4068 29.2286 38.2798 18.1995 43.6918 17.0974C49.9101 15.8311 56.2164 14.6208 61.9278 17.5297C64.999 19.0939 72.4686 26.1944 70.4288 23.416C67.8762 19.9391 64.7451 15.0088 64.7017 10.4777C64.6887 9.12934 64.5434 4.82476 64.8656 8.92554C65.1973 13.1488 65.3911 16.8766 66.4507 20.7581C66.6865 21.6219 68.2408 22.326 68.8982 22.863C69.4551 23.3179 66.749 23.5842 66.4514 23.6764C63.8823 24.4724 62.0388 26.3809 60.4345 28.4594C59.0025 30.3147 57.6923 33.2075 55.9739 33.1124" stroke="black" stroke-width="1.5564" stroke-linecap="round" stroke-linejoin="round"/>
</svg>
